<svg width="44" height="44" viewBox="0 0 44 44" fill="none" xmlns="http://www.w3.org/2000/svg">
<rect width="44" height="44" rx="10" fill="url(#paint0_linear)"/>
<path d="M36.9027 21.6805L34.8133 18.3292C34.691 18.1335 34.4769 18.0234 34.2474 18.0265C34.018 18.0326 33.81 18.161 33.7029 18.3628L28.2976 28.3678L26.2174 28.383L33.3175 16.0634C33.4337 15.8616 33.4307 15.6139 33.3144 15.4151L31.4117 12.2045C31.2955 12.0088 31.0874 11.8865 30.8549 11.8896C30.6255 11.8926 30.4144 12.0149 30.3013 12.2137L19.4111 31.2848C19.2979 31.4836 19.2979 31.7282 19.4141 31.927C19.5304 32.1257 19.7415 32.248 19.9709 32.248H29.8271L29.0134 33.7188H16.1593L29.5396 9.96013C29.7139 9.6513 29.6038 9.25991 29.2948 9.08562C29.1878 9.02446 29.0715 9.00306 28.9583 9.00612C28.9522 9.00306 28.9461 9 28.94 9H14.6084C14.3759 9 14.1587 9.12537 14.0455 9.33024L12.5191 12.0853C12.4089 12.284 12.412 12.5256 12.5282 12.7213C12.6445 12.917 12.8556 13.0362 13.0819 13.0362H22.9229L13.1339 30.1902L11.9868 28.2546L19.46 15.2898C19.5763 15.091 19.5732 14.8433 19.46 14.6446C19.3438 14.4458 19.1327 14.3266 18.9033 14.3266H18.9002L15.3181 14.3511C15.0825 14.3511 14.8684 14.4825 14.7583 14.6874L9.69251 24.0533L8.38936 21.9648L12.155 15.3051C12.3294 14.9962 12.2193 14.6048 11.9103 14.4306C11.6014 14.2563 11.2098 14.3633 11.0354 14.6752L7.08315 21.6621C6.96691 21.867 6.97303 22.1177 7.09845 22.3195L9.18777 25.6708C9.31014 25.8665 9.52733 25.9766 9.7537 25.9735C9.98312 25.9674 10.1911 25.839 10.2982 25.6372L15.7035 15.6322L17.7837 15.617L10.6836 27.9366C10.5674 28.1384 10.5705 28.3861 10.6867 28.5849L12.5894 31.7955C12.7057 31.9912 12.9076 32.1074 13.1462 32.1104C13.3756 32.1074 13.5867 31.9851 13.6999 31.7863L24.59 12.7152C24.7032 12.5164 24.7032 12.2718 24.587 12.073C24.4707 11.8743 24.2597 11.752 24.0302 11.752H14.174L14.9877 10.2812H27.8418L14.5136 34.0093L14.4983 34.0368C14.4738 34.0827 14.4554 34.1316 14.4401 34.1775C14.4371 34.1897 14.434 34.205 14.431 34.2172C14.4218 34.2539 14.4187 34.2906 14.4187 34.3273C14.4187 34.3426 14.4187 34.3548 14.4187 34.3701C14.4218 34.416 14.4248 34.4618 14.4371 34.5046C14.4371 34.5077 14.4371 34.5138 14.4401 34.5169C14.4524 34.5658 14.4738 34.6117 14.4983 34.6545C14.5013 34.6606 14.5013 34.6636 14.5044 34.6698C14.5074 34.6759 14.5166 34.682 14.5197 34.6912C14.5411 34.7248 14.5625 34.7523 14.59 34.7829C14.5992 34.7921 14.6084 34.8043 14.6206 34.8135C14.6543 34.8441 14.6879 34.8716 14.7277 34.896C14.7338 34.8991 14.7369 34.9022 14.7399 34.9052C14.7399 34.9052 14.743 34.9052 14.743 34.9083C14.7675 34.9236 14.795 34.9297 14.8225 34.9388C14.847 34.948 14.8684 34.9602 14.8959 34.9664C14.951 34.9817 15.0061 34.9878 15.0581 34.9878H29.3897C29.6222 34.9878 29.8393 34.8624 29.9525 34.6575L31.479 31.9025C31.5891 31.7038 31.5861 31.4622 31.4698 31.2665C31.3536 31.0708 31.1425 30.9515 30.9161 30.9515H21.0783L30.8702 13.8007L32.0174 15.7362L24.5442 28.701C24.4279 28.8998 24.431 29.1475 24.5442 29.3462C24.6604 29.545 24.8715 29.6704 25.104 29.6642L28.6861 29.6398C28.9216 29.6367 29.1358 29.5083 29.2459 29.3034L34.3055 19.9376L35.6087 22.026L31.8461 28.698C31.6717 29.0068 31.7818 29.3982 32.0908 29.5725C32.3998 29.7468 32.7913 29.6398 32.9657 29.3279L36.918 22.3379C37.0342 22.133 37.0281 21.8823 36.9027 21.6805Z" fill="white"/>
<defs>
<linearGradient id="paint0_linear" x1="-18.6104" y1="23.2545" x2="23.1797" y2="64.8951" gradientUnits="userSpaceOnUse">
<stop stop-color="#CE2513"/>
<stop offset="1" stop-color="#CE2513"/>
</linearGradient>
</defs>
</svg>
